<svg id="Layer_1" data-name="Layer 1" xmlns="http://www.w3.org/2000/svg" width="400" height="95.12" viewBox="0 0 400 95.12"><title>applemusic</title><path d="M63.1,50.42q-0.19-11.61,10-18.08-5.76-8.37-17-9.42-4-.37-10.21,1.9-6.68,2.48-7.52,2.47-1.76,0-6.78-2.09a22.93,22.93,0,0,0-8.54-2.09,21.15,21.15,0,0,0-11,3.28A23.5,23.5,0,0,0,3.9,35.1,32.54,32.54,0,0,0,0,51.46,53.52,53.52,0,0,0,2.87,68.59,57.79,57.79,0,0,0,9.74,82.95a46.25,46.25,0,0,0,6.5,8.18q4,4,8.17,3.8a20.67,20.67,0,0,0,7.05-2,20.11,20.11,0,0,1,8.17-1.8,19.49,19.49,0,0,1,7.89,1.8,20.29,20.29,0,0,0,7.42,1.9,12.29,12.29,0,0,0,8-3.71A22.54,22.54,0,0,0,65.74,88q1.77-2.33,3.39-4.76,1.35-2.09,2.55-4.28A43,43,0,0,0,74,74.1q0.46-1,.83-2.14c0.25-.73.49-1.47,0.74-2.23A21.11,21.11,0,0,1,63.1,50.42h0Zm67.29,17h-0.45L111.1,24.31H96.3V93.8h12.9v-45h0.6l15.75,35.73h9l15.7-35.73h0.6v45h13V24.31h-14.7Zm-79-52.16A21,21,0,0,0,56.33,1.9V1a5,5,0,0,0-.09-1,18.14,18.14,0,0,0-7.29,2.19,20.21,20.21,0,0,0-6.36,5,19.7,19.7,0,0,0-5,12.84V21a4.83,4.83,0,0,0,.09.91q7.7,0.76,13.73-6.66h0Zm263.27,9.09h14.5V93.8h-14.5V24.31Zm58.28,11c8.6,0,13.14,6.62,13.14,13.75H400V47.63C400,34.19,389.75,23,372.85,23,354.76,23,344,34.9,344,55.21v7.84c0,20.31,10.7,32.07,28.84,32.07,17.35,0,27.2-11.36,27.2-24V69.62H386.1c0,7.18-4.45,13.14-13,13.14-8.8,0-14.4-6.26-14.4-19.65V55.27c0-13.34,5.65-19.91,14.3-19.91h0ZM219.38,68.19c0,9.32-5.45,14.46-13.45,14.46s-13.5-5.09-13.5-14.46V24.31H178V70.23c0,14.82,10.5,24.9,27.89,24.9S233.82,85,233.82,70.23V24.31H219.38V68.19h0Zm62.41-14.86L271.44,51c-6.1-1.28-9.3-4-9.3-8,0-5.34,4.35-8.7,11.35-8.7,7.9,0,11.85,4.53,12.2,9.42h13.5c-0.15-12.27-10.4-20.82-25.65-20.82-14.45,0-25.84,7.59-25.84,21.23,0,11.81,8,17.3,17.6,19.4l10.25,2.39c6.9,1.58,10.4,3.87,10.4,8.6,0,5.4-4.3,9.07-12.35,9.07-8.65,0-13.2-4.58-13.6-9.73H246.1c0.2,9.83,6.7,21.28,26.8,21.28,16.9,0,27.35-8.4,27.35-22,0-12.62-8.45-17.56-18.45-19.75h0Z" style="fill:#231f20"/></svg>