<svg id="Layer_1" data-name="Layer 1" xmlns="http://www.w3.org/2000/svg" width="488.98" height="76.16" viewBox="0 0 488.98 76.16"><title>beatport</title><path d="M471.11,56c0.28,0,1.94,0,2.56,0h0a2.5,2.5,0,0,1,2.46,2.22v5.62c-0.1.37,0,1.75-2.37,1.94h-3.13c-23.29,0-22.45-22.54-22.45-22.54V2.91A2.26,2.26,0,0,1,450.43.64h5.26A2.32,2.32,0,0,1,458,2.91v8.46h17.86A2.46,2.46,0,0,1,478,13.57v5.65a2.35,2.35,0,0,1-2.12,2l-17.86,0V42.79S457.28,56,471.11,56" style="fill:#231f20"/><path d="M418.26,63.4a2.33,2.33,0,0,1-2.3,2.27H410.7a2.26,2.26,0,0,1-2.22-2.27V34s-0.83-22.55,22.45-22.54h10c2.38,0.2,2.27,1.58,2.37,1.95V19a2.5,2.5,0,0,1-2.46,2.22h0l-9.44,0c-13.84,0-13.13,13.18-13.13,13.18V63.4Z" style="fill:#231f20"/><path d="M295.17,56.71c0.28,0,1.95,0,2.57,0h0a2.5,2.5,0,0,1,2.47,2.22V64.5c-0.11.37,0,1.75-2.37,1.94h-3.13c-23.29,0-22.45-22.54-22.45-22.54V3.66a2.26,2.26,0,0,1,2.22-2.27h5.26A2.32,2.32,0,0,1,282,3.65v8.46h17.86A2.46,2.46,0,0,1,302,14.32V20a2.35,2.35,0,0,1-2.12,2L282,22V43.54s-0.71,13.21,13.13,13.17" style="fill:#231f20"/><path d="M187.45,21.3l17.23,0c3.11,0.38,4.22,2,4.22,5.68v3.77c-0.23,2.79-.49,5.67-5.67,5.67H182.49V27c0.08-5.43,2.79-5.6,5-5.75m25.3,34.51-24.35,0c-5.49,0-5.94-2.29-5.94-9.36V46.19h20.9c9.61,0,15.06-5.75,15.33-16.1V26.94c0-9.74-5.87-15.56-15.74-15.56H188.28c-10.09.08-15.19,5.38-15.58,16.23l0,18.85c0,9.51,1.87,19.23,15.74,19.23h24.33c1.71,0,2.69-.91,2.69-2.5V58c0-.81-0.35-2.18-2.67-2.23" style="fill:#231f20"/><path d="M388.35,55.82l-6.88.11h-8.65c-4.46,0-6-1.45-6-5.79V27c0.08-5.44,2.78-5.6,5-5.75l15.54,0c5.49,0,6,2.28,6,9.35V50.07c-0.08,5.43-2.78,5.6-5,5.75m14.75-25.2c0-9.52-1.87-19.23-15.74-19.23h-14.7c-10.09.08-15.19,5.38-15.58,16.23V50.14c0,9.75,5.88,15.56,15.74,15.56h8.66v0h6c10.09-.08,15.19-5.38,15.58-16.23V30.61Z" style="fill:#231f20"/><path d="M153.43,55.71l-6.88,0h-8.91c-4.49,0-6-1.47-6-5.84l0-29.13h20.69c5.53,0,6,2.3,6,9.43l0,19.75c-0.08,5.43-2.71,5.6-4.88,5.75m14.74-25.48c0-9.6-1.88-19.39-15.86-19.39h-20.7V2.29A2.33,2.33,0,0,0,129.32,0H124a2.32,2.32,0,0,0-2.3,2.29V49.92c0,9.83,6,15.69,15.91,15.69h15c10.09-.08,15.2-5.38,15.58-16.23V42.3h0V30.23Z" style="fill:#231f20"/><path d="M252.26,55.82l-16.95,0c-3.39-.3-4.59-1.88-4.59-5.72V46.37c0.22-2.79.49-5.67,5.66-5.67h20.77l0.07,9.37c-0.08,5.44-2.78,5.6-5,5.75M267,39.17V30.61c0-9.51-1.87-19.23-15.74-19.23H226.89c-1.72,0-2.69.91-2.69,2.5V19c0,0.81.35,2.18,2.67,2.23l24.35,0c5.49,0,5.94,2.29,5.94,9.36v0.29h-20.9c-9.61,0-15.06,5.75-15.33,16.11v3.13c0,9.74,5.87,15.56,15.73,15.56h8.68l0,0h6c10.09-.08,15.19-5.38,15.58-16.23V39.17h0Z" style="fill:#231f20"/><path d="M340.57,54.64c-0.9.89-2.41,1.33-4.65,1.33H315.41l0-28.86c0-4.33,1.56-5.88,5.95-5.88h16.24a5,5,0,0,1,3,1.23c1.3,1.34,1.3,3.73,1.26,6.51,0,0.15,0,18.73,0,19.16,0,2.78,0,5.18-1.26,6.51m11.12-24.19c0-9.88-1.91-19-15.74-19H321.37c-9.85,0-15.73,5.87-15.73,15.69l0,46.78c0,1.41.69,2.28,1.82,2.28h5.71a2.33,2.33,0,0,0,2.27-2.27V65.67h20.52c13.83,0,15.74-9.15,15.74-19V42.4Z" style="fill:#231f20"/><path d="M90.11,38.52A37.9,37.9,0,1,0,24.59,64.45h0a2.35,2.35,0,0,0,3.32.1L32,60.7a2.35,2.35,0,0,0,.11-3.31h0a27.58,27.58,0,1,1,40.21,0h0a2.35,2.35,0,0,0,.11,3.31l4.09,3.84a2.35,2.35,0,0,0,3.32-.1h0A37.75,37.75,0,0,0,90.11,38.52" style="fill:#231f20"/><path d="M104.42,38.34a50.62,50.62,0,0,0-2.3-15.14h0v0a2.35,2.35,0,0,0-2.93-1.52l-5.36,1.66a2.35,2.35,0,0,0-1.55,2.93h0A40.42,40.42,0,0,1,88.41,59h0a2.35,2.35,0,0,0,.82,3.21L94,65.1a2.35,2.35,0,0,0,3.22-.81,50.57,50.57,0,0,0,7.16-26" style="fill:#231f20"/><path d="M16,59a40.42,40.42,0,0,1-3.86-32.75h0a2.35,2.35,0,0,0-1.54-2.93L5.25,21.65a2.35,2.35,0,0,0-2.93,1.52h0A50.72,50.72,0,0,0,7.17,64.3h0a2.35,2.35,0,0,0,3.21.79l4.81-2.89A2.35,2.35,0,0,0,16,59h0Z" style="fill:#231f20"/><path d="M483.83,55A5.13,5.13,0,1,0,489,60.13,5.11,5.11,0,0,0,483.83,55m0,8.88a3.45,3.45,0,0,1-3.63-3.77,3.63,3.63,0,1,1,7.25,0,3.46,3.46,0,0,1-3.62,3.77" style="fill:#231f20"/><path d="M484.22,57.85h-2.37v4.8h1V60.71h0.81l1.11,1.94H486l-1.18-1.94a1.23,1.23,0,0,0,1.33-1.36c0-1.15-.61-1.5-1.9-1.5m0,2.1h-1.36V58.62H484c0.48,0,1.19,0,1.19.61s-0.37.74-.93,0.73" style="fill:#231f20"/></svg>