<svg id="Layer_1" data-name="Layer 1" xmlns="http://www.w3.org/2000/svg" width="400" height="59.5" viewBox="0 0 400 59.5"><title>juno</title><path d="M6.41,0.08C9.65-.07,12.9,0,16.14,0c0,2.73,0,5.46,0,8.2-3.24,0-6.49.05-9.73-.05C6.44,5.47,6.43,2.77,6.41.08Z" style="fill:#231f20"/><path d="M169.4,0.15h2.44q0,22.92,0,45.84c-0.82.06-1.63,0.1-2.45,0.08,0-2.42,0-4.83,0-7.25a13.91,13.91,0,0,1-6.32,6.64,15.51,15.51,0,0,1-9.67,1,11.76,11.76,0,0,1-6.58-3.59,18.59,18.59,0,0,1-4.35-10.7c-0.24-4,0-8.23,1.74-11.95A12.71,12.71,0,0,1,151,13.37a16,16,0,0,1,12.73.43,11.14,11.14,0,0,1,5.67,6.74C169.42,13.75,169.38,6.94,169.4.15ZM154.45,14.7a10.77,10.77,0,0,0-4.16,1.68,13.18,13.18,0,0,0-4.61,6.87,21.33,21.33,0,0,0,.37,13.39c1.15,2.82,3,5.58,5.81,6.9a12.9,12.9,0,0,0,10.41,0c2.85-1.32,4.65-4.11,5.81-6.92a20.65,20.65,0,0,0,.37-13.17,13.45,13.45,0,0,0-4.52-7A12.47,12.47,0,0,0,154.45,14.7Z" style="fill:#231f20"/><path d="M294.42,0.15h2.46c0,15.29,0,30.57,0,45.86-0.83,0-1.65.05-2.48,0.05Q294.41,23.1,294.42.15Z" style="fill:#231f20"/><path d="M397.56,0.16l2.44,0c0,15.31,0,30.62,0,45.93-0.75,0-1.49,0-2.23,0a1.16,1.16,0,0,1-.2-0.94c0-2.09,0-4.19,0-6.29a13.62,13.62,0,0,1-6.5,6.74,15.37,15.37,0,0,1-8.62,1.07,12.26,12.26,0,0,1-6.79-3.08,17,17,0,0,1-4.09-6.81,24.9,24.9,0,0,1-.87-9.75c0.39-4.21,1.89-8.52,5.06-11.46,2.75-2.54,6.66-3.41,10.32-3.24a13,13,0,0,1,9.23,4.12,11.44,11.44,0,0,1,2.26,4.1C397.6,13.73,397.55,6.94,397.56.16ZM384.13,14.48A10.78,10.78,0,0,0,376.61,18,17.79,17.79,0,0,0,373,29.49a17.78,17.78,0,0,0,3.12,10.61,9.8,9.8,0,0,0,6,4.17c3.84,0.91,8.36.22,11.15-2.76a17.62,17.62,0,0,0,4.22-12,18.14,18.14,0,0,0-3.69-11.39C391.49,15.29,387.66,14.21,384.13,14.48Z" style="fill:#231f20"/><path d="M80.7,12a16,16,0,0,1,10.62,1.91,8.79,8.79,0,0,1,3.86,5.5A34.63,34.63,0,0,1,95.65,27c0,6.35,0,12.7,0,19.05C92.42,46,89.21,46,86,46c-0.07-4.29,0-8.59,0-12.88-0.11-3.38.17-6.8-.37-10.15a5.13,5.13,0,0,0-3.51-4c-3.46-1-7.8.54-9.23,4A22,22,0,0,0,72,29.71c0,5.45,0,10.9,0,16.34-3.23-.11-6.47,0-9.71-0.07q0-16.65,0-33.29h9c0,1.63,0,3.26,0,4.89A15,15,0,0,1,80.7,12Z" style="fill:#231f20"/><path d="M115.29,12a23.63,23.63,0,0,1,11.16,1.17,17.83,17.83,0,0,1,8.41,6.8,18,18,0,0,1,2,13.75c-1.61,6.74-7.8,11.85-14.58,12.8a23.12,23.12,0,0,1-14.24-2.22,15.07,15.07,0,0,1-7.71-9.58,19.73,19.73,0,0,1,.06-10.9A17,17,0,0,1,105.58,16,19.32,19.32,0,0,1,115.29,12Zm1.11,7.19a8.61,8.61,0,0,0-4,2.24,9.68,9.68,0,0,0-2.67,6,14.07,14.07,0,0,0,1,7.43,8.51,8.51,0,0,0,5.82,4.57,9,9,0,0,0,7-1.34,8.6,8.6,0,0,0,3.41-5,15.62,15.62,0,0,0,0-7.72,8.72,8.72,0,0,0-5.07-5.85A9.24,9.24,0,0,0,116.39,19.2Z" style="fill:#231f20"/><path d="M191,12.47c4.3-.61,9,0.25,12.32,3.23a17.47,17.47,0,0,1,5,9.59,22.17,22.17,0,0,1-1.52,13.18,14.44,14.44,0,0,1-6.62,6.93,16.43,16.43,0,0,1-11.2.77,13.25,13.25,0,0,1-7.26-5.3,19.16,19.16,0,0,1-3.31-11.61,18.43,18.43,0,0,1,4.74-12.85A13.24,13.24,0,0,1,191,12.47Zm0,2.25a10.75,10.75,0,0,0-6.44,3.88,16.35,16.35,0,0,0-3.28,7,18.44,18.44,0,0,0,1.55,12.13A12.85,12.85,0,0,0,188,43.37a12.87,12.87,0,0,0,10.76.19,11.62,11.62,0,0,0,5.36-5.29,19,19,0,0,0,1.81-12.21,15.27,15.27,0,0,0-4.74-9A12.47,12.47,0,0,0,190.92,14.72Z" style="fill:#231f20"/><path d="M268.48,13.64a15.5,15.5,0,0,1,10.45-.87,9.08,9.08,0,0,1,5.55,3.91,12.89,12.89,0,0,1,1.81,6.38c0.06,7.64,0,15.29,0,22.94-0.82,0-1.64,0-2.46,0,0-6.71,0-13.41,0-20.12,0-2.25.08-4.6-.95-6.68a6.78,6.78,0,0,0-4-4,13.07,13.07,0,0,0-8.57-.09,11.68,11.68,0,0,0-7.1,8,20.72,20.72,0,0,0-.65,6.37c0,5.5,0,11,0,16.51-0.81,0-1.62,0-2.43,0q0-16.48,0-33h2.43c0,2.42,0,4.84,0,7.26A11.34,11.34,0,0,1,268.48,13.64Z" style="fill:#231f20"/><path d="M316.17,12.44c4.24-.55,8.87.33,12.11,3.25a17.74,17.74,0,0,1,5.25,10.85,21.9,21.9,0,0,1-1.71,11.91,14.28,14.28,0,0,1-7,7.1A16.07,16.07,0,0,1,311.21,45a15.17,15.17,0,0,1-6.38-7.63,20.4,20.4,0,0,1-1.4-8.35,18.39,18.39,0,0,1,4.64-12.51A13.25,13.25,0,0,1,316.17,12.44Zm-0.23,2.27A10.78,10.78,0,0,0,309,19.26,17.78,17.78,0,0,0,306,32a16.51,16.51,0,0,0,4.35,9.41,10.74,10.74,0,0,0,5.77,3c3.72,0.67,7.91-.14,10.64-2.89a16.61,16.61,0,0,0,4.49-11.79,17.08,17.08,0,0,0-3.95-11.67C324.51,14.94,319.94,13.91,315.95,14.71Z" style="fill:#231f20"/><path d="M345.62,13.56a17.35,17.35,0,0,1,7.13-1.32,16.19,16.19,0,0,1,8.19,2,6.36,6.36,0,0,1,2.7,3.64,16.54,16.54,0,0,1,.39,5V36.28c0,1.7-.08,3.41.08,5.1a3,3,0,0,0,1,2.27,6.69,6.69,0,0,0,2.93.11c0,0.69,0,1.38,0,2.07-1.7.24-3.74,0.52-5.15-.69-1.54-1.52-1.29-3.84-1.36-5.81a11.74,11.74,0,0,1-6.91,6.55,16.78,16.78,0,0,1-7.53.82,11.69,11.69,0,0,1-6.47-2.6,7.84,7.84,0,0,1-2.39-5.34,9.85,9.85,0,0,1,1.3-6.44A10,10,0,0,1,345,28.65a22.57,22.57,0,0,1,4.41-.87,50.51,50.51,0,0,0,8.34-.89,5,5,0,0,0,3.23-1.69,5.36,5.36,0,0,0,.7-3,6.35,6.35,0,0,0-.7-3.87,8.21,8.21,0,0,0-5.9-3.77,13.79,13.79,0,0,0-8.48,1.2c-2.66,1.47-4,4.53-4.19,7.45h-2.46a13.74,13.74,0,0,1,1.43-5.63A9,9,0,0,1,345.62,13.56Zm11.21,15.5c-2.68.29-5.36,0.63-8.05,0.86-2.24.25-4.62,0.84-6.26,2.48a7.3,7.3,0,0,0-1.81,6.4A6.47,6.47,0,0,0,343,42.65a9.23,9.23,0,0,0,6.35,2,12,12,0,0,0,7-1.8,11.14,11.14,0,0,0,5.23-9.49c0-2,0-4,.05-6A9.39,9.39,0,0,1,356.84,29.05Z" style="fill:#231f20"/><path d="M6.41,12.77c3.24-.17,6.48,0,9.73-0.07q0,15.19,0,30.38a44.71,44.71,0,0,1-.68,10.14A7.46,7.46,0,0,1,12,57.87,12.8,12.8,0,0,1,5.32,59.5H0c0-2.81,0-5.62,0-8.43a8.6,8.6,0,0,0,4.19,0,2.91,2.91,0,0,0,2-2.07,25.7,25.7,0,0,0,.2-3.87C6.41,34.33,6.44,23.55,6.41,12.77Z" style="fill:#231f20"/><path d="M22.5,12.76c3.23-.15,6.47,0,9.71-0.07,0,6,0,12.1,0,18.15a39.69,39.69,0,0,0,.4,5.24A4.83,4.83,0,0,0,36,39.68a8.19,8.19,0,0,0,8.65-2.61,7.11,7.11,0,0,0,1.27-4c0.33-3.61.19-7.24,0.2-10.86,0.1-3.19-.1-6.38,0-9.57,3.21,0,6.43,0,9.64,0q0,16.68,0,33.36c-3-.07-6,0-8.93-0.05,0-1.6,0-3.2,0-4.81a15.49,15.49,0,0,1-6.19,4.5,15.76,15.76,0,0,1-12.45-.29,9,9,0,0,1-4.6-4.77,22.5,22.5,0,0,1-1.06-8.43C22.5,25.72,22.53,19.24,22.5,12.76Z" style="fill:#231f20"/><path d="M211,12.92h2.61C216.74,23,219.82,33.2,223,43.33c3-10.11,6-20.21,9-30.33a32.07,32.07,0,0,1,3.3-.07c2,6.59,3.95,13.19,5.94,19.78,1.08,3.49,2,7,3.22,10.49,3.13-10.08,6.19-20.18,9.27-30.27h2.71q-4.72,14.87-9.51,29.71c-0.39,1.11-.66,2.27-1.11,3.36-1,.12-2,0-3,0-3-10-6.05-20-9-29.95-0.85,2.09-1.37,4.29-2.06,6.44-2.4,7.83-4.77,15.68-7.16,23.51-1,0-2,.07-3,0a4.18,4.18,0,0,1-.63-1.55q-4-12.82-8.11-25.63C212.21,16.86,211.51,14.92,211,12.92Z" style="fill:#231f20"/></svg>