<svg id="Layer_1" data-name="Layer 1" xmlns="http://www.w3.org/2000/svg" width="453.53" height="43.35" viewBox="0 0 453.53 43.35"><title>label_logo3</title><path d="M2,31.7c2.47,5.17,8,5.21,9.2,5.16h14c1.27,0.05,6.72,0,9.16-5.16a21.83,21.83,0,0,0,2-9.45C36.36,10.35,26.65,0,18.21,0H18.15C9.71,0,0,10.35,0,22.24A21.83,21.83,0,0,0,2,31.7ZM18.12,7.76h0.11c3.72,0,8,7.25,8,13.19s-4.27,8.38-8,8.39H18.12c-3.72,0-8-2.44-8-8.39S14.41,7.79,18.12,7.76Z" style="fill:#231f20"/><path d="M9.5,41.58a1.77,1.77,0,0,1,1.77-1.77H25.09a1.77,1.77,0,0,1,1.77,1.77h0a1.77,1.77,0,0,1-1.77,1.77H11.27A1.77,1.77,0,0,1,9.5,41.58h0Z" style="fill:#231f20"/><path d="M120.59,12.28h-4.13A2.43,2.43,0,0,0,114,14.71V34.21a2.43,2.43,0,0,1-2.43,2.43h-2.36a2.43,2.43,0,0,1-2.43-2.43V14.71a2.43,2.43,0,0,0-2.43-2.43h-4A2.43,2.43,0,0,1,98,9.85V9.13a2.43,2.43,0,0,1,2.43-2.43h20.17A2.43,2.43,0,0,1,123,9.13V9.85A2.43,2.43,0,0,1,120.59,12.28Z" style="fill:#231f20"/><path d="M194.13,22.29A17.65,17.65,0,0,1,192.5,30a12,12,0,0,1-4.61,5.19,12.85,12.85,0,0,1-6.81,1.82,13,13,0,0,1-6.78-1.76,12,12,0,0,1-4.61-5,17.14,17.14,0,0,1-1.74-7.5V21.08a17.73,17.73,0,0,1,1.61-7.76,12,12,0,0,1,4.63-5.19,13.69,13.69,0,0,1,13.64,0,12.19,12.19,0,0,1,4.64,5.15,17.23,17.23,0,0,1,1.68,7.66v1.38ZM186.79,21q0-4.46-1.49-6.77A4.78,4.78,0,0,0,181,12q-5.43,0-5.74,8.14l0,2.2a12.94,12.94,0,0,0,1.46,6.76,4.77,4.77,0,0,0,4.34,2.36,4.72,4.72,0,0,0,4.21-2.32,12.59,12.59,0,0,0,1.5-6.68V21Z" style="fill:#231f20"/><path d="M245.87,36.64h-2.34a2.43,2.43,0,0,1-2.43-2.43V9.13a2.43,2.43,0,0,1,2.43-2.43h2.34a2.43,2.43,0,0,1,2.43,2.43V34.21A2.43,2.43,0,0,1,245.87,36.64Z" style="fill:#231f20"/><path d="M305.14,31.09h7.71a2.43,2.43,0,0,1,2.43,2.43v0.7a2.43,2.43,0,0,1-2.43,2.43H297.92a2.43,2.43,0,0,1-2.43-2.43V9.13a2.43,2.43,0,0,1,2.43-2.43h2.36a2.43,2.43,0,0,1,2.43,2.43V28.66A2.43,2.43,0,0,0,305.14,31.09Z" style="fill:#231f20"/><path d="M378.38,23.94h-6.5a2.43,2.43,0,0,0-2.43,2.43v2.3a2.43,2.43,0,0,0,2.43,2.43h8.55a2.43,2.43,0,0,1,2.43,2.43v0.7a2.43,2.43,0,0,1-2.43,2.43H364.66a2.43,2.43,0,0,1-2.43-2.43V9.13a2.43,2.43,0,0,1,2.43-2.43h15.81a2.43,2.43,0,0,1,2.43,2.43V9.85a2.43,2.43,0,0,1-2.43,2.43h-8.59a2.43,2.43,0,0,0-2.43,2.43v1.46a2.43,2.43,0,0,0,2.43,2.43h6.5A2.43,2.43,0,0,1,380.8,21v0.49A2.43,2.43,0,0,1,378.38,23.94Z" style="fill:#231f20"/><path d="M430,34.21V9.13a2.43,2.43,0,0,1,2.43-2.43h7.22a14.18,14.18,0,0,1,7.13,1.8,12.65,12.65,0,0,1,4.94,5.08,15.33,15.33,0,0,1,1.8,7.35v1.38a15.41,15.41,0,0,1-1.74,7.37,12.7,12.7,0,0,1-4.89,5.1,13.87,13.87,0,0,1-7,1.86h-7.42A2.43,2.43,0,0,1,430,34.21Zm7.22-19.51v14a2.43,2.43,0,0,0,2.43,2.43h0.08a5.61,5.61,0,0,0,4.77-2.21q1.67-2.21,1.66-6.57V21q0-4.34-1.66-6.54a5.71,5.71,0,0,0-4.85-2.2h0A2.43,2.43,0,0,0,437.23,14.71Z" style="fill:#231f20"/></svg>