<svg id="Layer_1" data-name="Layer 1" xmlns="http://www.w3.org/2000/svg" width="311.33" height="87.88" viewBox="0 0 311.33 87.88"><title>label_logo</title><path d="M4,62.81C8.87,73.07,19.85,73.14,22.21,73c0.29,0,27.36,0,27.7,0,2.52,0.1,13.32-.08,18.16-10.22a43.26,43.26,0,0,0,4-18.73C72.05,20.51,52.81,0,36.08,0H36C19.24,0,0,20.51,0,44.08A43.26,43.26,0,0,0,4,62.81ZM35.92,15.37h0.22C43.5,15.43,52,29.73,52,41.52S43.5,58.11,36.14,58.13H35.92c-7.37,0-15.82-4.84-15.82-16.62S28.55,15.43,35.92,15.37Z" style="fill:#231f20"/><path d="M18.82,84.37a3.51,3.51,0,0,1,3.51-3.51h27.4a3.51,3.51,0,0,1,3.51,3.51h0a3.51,3.51,0,0,1-3.51,3.51H22.33a3.51,3.51,0,0,1-3.51-3.51h0Z" style="fill:#231f20"/><path d="M108,82.75v4.93h-1.54V76.31h3.89a4.32,4.32,0,0,1,2.85.83,3,3,0,0,1,1,2.41,2.57,2.57,0,0,1-.46,1.52,3.1,3.1,0,0,1-1.33,1,2.33,2.33,0,0,1,1.35,1,3.23,3.23,0,0,1,.41,1.69v1.07a3.57,3.57,0,0,0,.12,1,1.43,1.43,0,0,0,.41.69v0.19H113a1.27,1.27,0,0,1-.39-0.78,6.45,6.45,0,0,1-.09-1.06v-1a2.05,2.05,0,0,0-.54-1.48,1.91,1.91,0,0,0-1.44-.56H108Zm0-1.21h2.19A2.86,2.86,0,0,0,112,81a1.89,1.89,0,0,0,.57-1.51A2,2,0,0,0,112,78a2.46,2.46,0,0,0-1.74-.53H108v4Z" style="fill:#231f20"/><path d="M138.79,82.4h-4.67v4.07h5.47v1.2h-7V76.3h6.92v1.21h-5.38v3.68h4.67V82.4Z" style="fill:#231f20"/><path d="M165.52,84l0,0a3.42,3.42,0,0,1-1.12,2.68,4.3,4.3,0,0,1-3.05,1.08,4,4,0,0,1-3.14-1.37A5,5,0,0,1,157,83V81a5,5,0,0,1,1.21-3.47,4,4,0,0,1,3.14-1.37,4.42,4.42,0,0,1,3.07,1,3.4,3.4,0,0,1,1.11,2.72l0,0H164a2.54,2.54,0,0,0-.7-1.89,2.7,2.7,0,0,0-2-.7,2.42,2.42,0,0,0-2.05,1,4.22,4.22,0,0,0-.77,2.58v2a4.25,4.25,0,0,0,.77,2.59,2.42,2.42,0,0,0,2.05,1,2.71,2.71,0,0,0,2-.69A2.56,2.56,0,0,0,164,84h1.48Z" style="fill:#231f20"/><path d="M192.21,83a4.85,4.85,0,0,1-1.29,3.46,4.4,4.4,0,0,1-3.35,1.37,4.17,4.17,0,0,1-3.24-1.37A5,5,0,0,1,183.08,83V81a5,5,0,0,1,1.25-3.46,4.16,4.16,0,0,1,3.24-1.38,4.39,4.39,0,0,1,3.35,1.38A4.87,4.87,0,0,1,192.21,81v2Zm-1.54-2a3.84,3.84,0,0,0-.84-2.56,2.81,2.81,0,0,0-2.26-1,2.61,2.61,0,0,0-2.14,1,4,4,0,0,0-.8,2.56v2a4,4,0,0,0,.8,2.58,2.61,2.61,0,0,0,2.14,1,2.81,2.81,0,0,0,2.27-1,3.87,3.87,0,0,0,.84-2.58V81Z" style="fill:#231f20"/><path d="M212,82.75v4.93h-1.54V76.31h3.89a4.32,4.32,0,0,1,2.85.83,3,3,0,0,1,1,2.41,2.58,2.58,0,0,1-.46,1.52,3.1,3.1,0,0,1-1.33,1,2.33,2.33,0,0,1,1.35,1,3.23,3.23,0,0,1,.41,1.69v1.07a3.55,3.55,0,0,0,.12,1,1.43,1.43,0,0,0,.41.69v0.19h-1.59a1.27,1.27,0,0,1-.39-0.78,6.45,6.45,0,0,1-.09-1.06v-1a2.06,2.06,0,0,0-.54-1.48,1.91,1.91,0,0,0-1.44-.56H212Zm0-1.21h2.19A2.86,2.86,0,0,0,216,81a1.89,1.89,0,0,0,.57-1.51A2,2,0,0,0,216,78a2.46,2.46,0,0,0-1.74-.53H212v4Z" style="fill:#231f20"/><path d="M236.59,87.68V76.3h3.58a4.68,4.68,0,0,1,4.94,4.91v1.55a4.66,4.66,0,0,1-4.94,4.9h-3.58Zm1.54-10.16v9h2a3.13,3.13,0,0,0,2.49-1,3.89,3.89,0,0,0,.91-2.66V81.2a3.87,3.87,0,0,0-.91-2.65,3.13,3.13,0,0,0-2.49-1h-2Z" style="fill:#231f20"/><path d="M269.48,84.81a1.71,1.71,0,0,0-.55-1.3,4.62,4.62,0,0,0-2-.89,6.5,6.5,0,0,1-2.71-1.27,2.65,2.65,0,0,1-1-2.1,2.8,2.8,0,0,1,1-2.23,4.05,4.05,0,0,1,2.72-.89,4,4,0,0,1,2.86,1,3.09,3.09,0,0,1,1,2.38l0,0h-1.47a2.1,2.1,0,0,0-.68-1.6,2.43,2.43,0,0,0-1.73-.63,2.37,2.37,0,0,0-1.65.52,1.75,1.75,0,0,0-.57,1.36,1.52,1.52,0,0,0,.63,1.24,5.8,5.8,0,0,0,2,.87,5.79,5.79,0,0,1,2.62,1.31,2.86,2.86,0,0,1,.9,2.14A2.66,2.66,0,0,1,269.94,87a4.49,4.49,0,0,1-2.82.84,4.8,4.8,0,0,1-2.91-.92A2.81,2.81,0,0,1,263,84.45l0,0h1.47a1.91,1.91,0,0,0,.81,1.65,3.07,3.07,0,0,0,1.83.58,2.76,2.76,0,0,0,1.73-.49A1.6,1.6,0,0,0,269.48,84.81Z" style="fill:#231f20"/><path d="M125.43,21.54h-6.59A3.87,3.87,0,0,0,115,25.41V56.52a3.87,3.87,0,0,1-3.87,3.87h-3.77a3.87,3.87,0,0,1-3.87-3.87V25.41a3.87,3.87,0,0,0-3.87-3.87H93.27a3.87,3.87,0,0,1-3.87-3.87V16.53a3.87,3.87,0,0,1,3.87-3.87h32.16a3.87,3.87,0,0,1,3.87,3.87v1.15A3.87,3.87,0,0,1,125.43,21.54Z" style="fill:#231f20"/><path d="M173.66,37.51a28.15,28.15,0,0,1-2.59,12.36,19.14,19.14,0,0,1-7.36,8.28A20.5,20.5,0,0,1,152.84,61,20.78,20.78,0,0,1,142,58.25a19.1,19.1,0,0,1-7.36-8,27.33,27.33,0,0,1-2.77-12V35.57a28.27,28.27,0,0,1,2.57-12.38,19.1,19.1,0,0,1,7.38-8.28,21.84,21.84,0,0,1,21.75,0A19.45,19.45,0,0,1,171,23.1a27.47,27.47,0,0,1,2.67,12.21v2.2Zm-11.7-2q0-7.11-2.38-10.8a7.62,7.62,0,0,0-6.8-3.69q-8.66,0-9.15,13l0,3.51q0,7,2.33,10.79a7.61,7.61,0,0,0,6.92,3.77,7.52,7.52,0,0,0,6.72-3.7q2.36-3.7,2.39-10.66v-2.2Z" style="fill:#231f20"/><path d="M188,60.39h-3.74a3.87,3.87,0,0,1-3.87-3.87v-40a3.87,3.87,0,0,1,3.87-3.87H188a3.87,3.87,0,0,1,3.87,3.87v40A3.87,3.87,0,0,1,188,60.39Z" style="fill:#231f20"/><path d="M215.23,51.54h12.29a3.87,3.87,0,0,1,3.87,3.87v1.11a3.87,3.87,0,0,1-3.87,3.87h-23.8a3.87,3.87,0,0,1-3.87-3.87v-40a3.87,3.87,0,0,1,3.87-3.87h3.77a3.87,3.87,0,0,1,3.87,3.87V47.67A3.87,3.87,0,0,0,215.23,51.54Z" style="fill:#231f20"/><path d="M262,40.13H251.62A3.87,3.87,0,0,0,247.75,44v3.67a3.87,3.87,0,0,0,3.87,3.87h13.64a3.87,3.87,0,0,1,3.87,3.87v1.11a3.87,3.87,0,0,1-3.87,3.87H240.11a3.87,3.87,0,0,1-3.87-3.87v-40a3.87,3.87,0,0,1,3.87-3.87h25.21a3.87,3.87,0,0,1,3.87,3.87v1.15a3.87,3.87,0,0,1-3.87,3.87h-13.7a3.87,3.87,0,0,0-3.87,3.87v2.33a3.87,3.87,0,0,0,3.87,3.87H262a3.87,3.87,0,0,1,3.87,3.87v0.79A3.87,3.87,0,0,1,262,40.13Z" style="fill:#231f20"/><path d="M273.82,56.52v-40a3.87,3.87,0,0,1,3.87-3.87H289.2a22.62,22.62,0,0,1,11.38,2.87,20.17,20.17,0,0,1,7.88,8.1,24.45,24.45,0,0,1,2.87,11.72v2.2a24.58,24.58,0,0,1-2.77,11.75,20.25,20.25,0,0,1-7.8,8.13,22.12,22.12,0,0,1-11.23,3H277.69A3.87,3.87,0,0,1,273.82,56.52Zm11.51-31.11V47.67a3.87,3.87,0,0,0,3.87,3.87h0.13A9,9,0,0,0,296.93,48q2.66-3.52,2.65-10.47V35.48q0-6.92-2.65-10.43a9.11,9.11,0,0,0-7.74-3.51h0A3.87,3.87,0,0,0,285.33,25.41Z" style="fill:#231f20"/></svg>