<svg width="100" height="50" viewBox="0 0 100 50" fill="none" xmlns="http://www.w3.org/2000/svg">
<g clip-path="url(#clip0)">
<path d="M75 50C88.8071 50 100 38.8071 100 25C100 11.1929 88.8071 0 75 0C61.1929 0 50 11.1929 50 25C50 38.8071 61.1929 50 75 50Z" fill="#DC143C"/>
<path d="M69.77 16.36H69.59C68.4854 16.36 67.59 17.2554 67.59 18.36V31.64C67.59 32.7446 68.4854 33.64 69.59 33.64H69.77C70.8745 33.64 71.77 32.7446 71.77 31.64V18.36C71.77 17.2554 70.8745 16.36 69.77 16.36Z" fill="white"/>
<path d="M80.41 16.36H80.23C79.1254 16.36 78.23 17.2554 78.23 18.36V31.64C78.23 32.7446 79.1254 33.64 80.23 33.64H80.41C81.5146 33.64 82.41 32.7446 82.41 31.64V18.36C82.41 17.2554 81.5146 16.36 80.41 16.36Z" fill="white"/>
<path d="M25 49.5C20.1544 49.5 15.4175 48.0631 11.3885 45.371C7.35954 42.6789 4.21931 38.8525 2.36496 34.3757C0.510615 29.899 0.0254338 24.9728 0.970772 20.2203C1.91611 15.4677 4.24951 11.1023 7.67589 7.67588C11.1023 4.24949 15.4678 1.91609 20.2203 0.970756C24.9728 0.0254185 29.899 0.5106 34.3758 2.36495C38.8525 4.21929 42.6789 7.35952 45.371 11.3885C48.0631 15.4175 49.5 20.1544 49.5 25C49.5 31.4978 46.9188 37.7295 42.3241 42.3241C37.7295 46.9188 31.4978 49.5 25 49.5V49.5Z" fill="white"/>
<path d="M25 1C29.7468 1 34.3869 2.40758 38.3337 5.04473C42.2805 7.68188 45.3566 11.4302 47.1731 15.8156C48.9896 20.201 49.4649 25.0266 48.5389 29.6822C47.6128 34.3377 45.327 38.6141 41.9706 41.9706C38.6141 45.327 34.3377 47.6128 29.6822 48.5388C25.0266 49.4649 20.201 48.9896 15.8156 47.1731C11.4302 45.3566 7.68189 42.2805 5.04474 38.3337C2.40759 34.3869 1.00001 29.7468 1.00001 25C1.00001 18.6348 3.52858 12.5303 8.02945 8.02944C12.5303 3.52856 18.6348 1 25 1V1ZM25 0C20.0555 0 15.222 1.46622 11.1108 4.21326C6.99953 6.96029 3.79521 10.8648 1.90302 15.4329C0.0108321 20.0011 -0.484251 25.0277 0.480379 29.8773C1.44501 34.7268 3.82603 39.1814 7.32234 42.6777C10.8187 46.174 15.2732 48.555 20.1228 49.5196C24.9723 50.4843 29.9989 49.9892 34.5671 48.097C39.1352 46.2048 43.0397 43.0005 45.7868 38.8893C48.5338 34.778 50 29.9445 50 25C50 18.3696 47.3661 12.0107 42.6777 7.32233C37.9893 2.63392 31.6304 0 25 0V0Z" fill="#DC143C"/>
<path d="M23.3733 32.3292C22.0406 33.144 20.33 32.1849 20.33 30.6229V19.3771C20.33 17.815 22.0406 16.8559 23.3733 17.6708L32.5693 23.2937C33.8449 24.0736 33.8449 25.9264 32.5693 26.7063L23.3733 32.3292Z" fill="#DC143C"/>
</g>
<defs>
<clipPath id="clip0">
<rect width="100" height="50" fill="white"/>
</clipPath>
</defs>
</svg>
