<svg id="Layer_1" data-name="Layer 1" xmlns="http://www.w3.org/2000/svg" width="100" height="50" viewBox="0 0 100 50"><title>play_pause2</title><circle cx="75" cy="25" r="25" style="fill:#ed143d"/><rect x="67.59" y="16.36" width="4.18" height="17.28" style="fill:#fff"/><rect x="78.23" y="16.36" width="4.18" height="17.28" style="fill:#fff"/><path d="M25,49.5A24.5,24.5,0,1,1,49.5,25,24.5,24.5,0,0,1,25,49.5Z" style="fill:#fff"/><path d="M25,1A24,24,0,1,1,1,25,24,24,0,0,1,25,1m0-1A25,25,0,1,0,50,25,25,25,0,0,0,25,0h0Z" style="fill:#ed143d"/><polygon points="20.33 34.19 20.33 15.81 35.36 25 20.33 34.19" style="fill:#ed143d"/></svg>